<svg width="76" height="15" viewBox="0 0 76 15" fill="none" xmlns="http://www.w3.org/2000/svg">
<path d="M4.08452 14L0.338778 0.909091H3.36222L5.52912 10.005H5.63778L8.02841 0.909091H10.6172L13.0014 10.0241H13.1165L15.2834 0.909091H18.3068L14.5611 14H11.8636L9.37074 5.44105H9.26847L6.78196 14H4.08452ZM23.1568 14.1918C22.1468 14.1918 21.2775 13.9872 20.5488 13.5781C19.8244 13.1648 19.2662 12.581 18.8741 11.8267C18.4821 11.0682 18.286 10.1712 18.286 9.13565C18.286 8.12571 18.4821 7.23935 18.8741 6.47656C19.2662 5.71378 19.818 5.11932 20.5297 4.69318C21.2456 4.26705 22.085 4.05398 23.0481 4.05398C23.6958 4.05398 24.2988 4.15838 24.8571 4.36719C25.4196 4.57173 25.9096 4.88068 26.3272 5.29403C26.7491 5.70739 27.0772 6.22727 27.3116 6.85369C27.546 7.47585 27.6632 8.20455 27.6632 9.03977V9.78764H19.3727V8.10014H25.1C25.1 7.7081 25.0147 7.3608 24.8443 7.05824C24.6738 6.75568 24.4373 6.51918 24.1348 6.34872C23.8365 6.17401 23.4892 6.08665 23.0929 6.08665C22.6795 6.08665 22.313 6.18253 21.9934 6.37429C21.6781 6.56179 21.4309 6.81534 21.252 7.13494C21.073 7.45028 20.9814 7.80185 20.9771 8.18963V9.79403C20.9771 10.2798 21.0666 10.6996 21.2456 11.0533C21.4288 11.407 21.6866 11.6797 22.019 11.8714C22.3514 12.0632 22.7456 12.1591 23.2015 12.1591C23.5041 12.1591 23.7811 12.1165 24.0325 12.0312C24.2839 11.946 24.4991 11.8182 24.6781 11.6477C24.8571 11.4773 24.9934 11.2685 25.0872 11.0213L27.6056 11.1875C27.4778 11.7926 27.2157 12.321 26.8194 12.7727C26.4274 13.2202 25.9203 13.5696 25.2981 13.821C24.6802 14.0682 23.9664 14.1918 23.1568 14.1918ZM32.2399 14.1854C31.6135 14.1854 31.0552 14.0767 30.5652 13.8594C30.0751 13.6378 29.6873 13.3118 29.4018 12.8814C29.1206 12.4467 28.9799 11.9055 28.9799 11.2578C28.9799 10.7124 29.0801 10.2543 29.2804 9.88352C29.4806 9.51278 29.7534 9.21449 30.0985 8.98864C30.4437 8.76278 30.8358 8.59233 31.2747 8.47727C31.7179 8.36222 32.1824 8.28125 32.6681 8.23438C33.2392 8.17472 33.6994 8.11932 34.0488 8.06818C34.3983 8.01278 34.6518 7.93182 34.8095 7.82528C34.9672 7.71875 35.046 7.56108 35.046 7.35227V7.31392C35.046 6.90909 34.9181 6.59588 34.6625 6.37429C34.411 6.1527 34.0531 6.0419 33.5886 6.0419C33.0985 6.0419 32.7086 6.15057 32.4189 6.3679C32.1291 6.58097 31.9373 6.84943 31.8436 7.1733L29.3251 6.96875C29.4529 6.37216 29.7044 5.85653 30.0794 5.42188C30.4544 4.98295 30.938 4.64631 31.5304 4.41193C32.127 4.1733 32.8173 4.05398 33.6014 4.05398C34.1468 4.05398 34.6689 4.1179 35.1674 4.24574C35.6703 4.37358 36.1156 4.57173 36.5034 4.8402C36.8954 5.10866 37.2044 5.45384 37.4302 5.87571C37.6561 6.29332 37.769 6.79403 37.769 7.37784V14H35.1866V12.6385H35.1099C34.9522 12.9453 34.7413 13.2159 34.4771 13.4503C34.2129 13.6804 33.8954 13.8615 33.5247 13.9936C33.1539 14.1214 32.7257 14.1854 32.2399 14.1854ZM33.0197 12.3061C33.4203 12.3061 33.774 12.2273 34.0808 12.0696C34.3876 11.9077 34.6284 11.6903 34.8031 11.4176C34.9778 11.1449 35.0652 10.8359 35.0652 10.4908V9.44886C34.9799 9.50426 34.8627 9.5554 34.7136 9.60227C34.5687 9.64489 34.4047 9.68537 34.2214 9.72372C34.0382 9.75781 33.8549 9.78977 33.6717 9.8196C33.4885 9.84517 33.3223 9.86861 33.1731 9.88991C32.8535 9.93679 32.5744 10.0114 32.3358 10.1136C32.0971 10.2159 31.9118 10.3544 31.7797 10.5291C31.6475 10.6996 31.5815 10.9126 31.5815 11.1683C31.5815 11.5391 31.7157 11.8224 31.9842 12.0185C32.2569 12.2102 32.6021 12.3061 33.0197 12.3061ZM45.1039 4.18182V6.22727H39.1912V4.18182H45.1039ZM40.5336 1.82955H43.2566V10.983C43.2566 11.2344 43.2949 11.4304 43.3716 11.571C43.4483 11.7074 43.5549 11.8033 43.6912 11.8587C43.8319 11.9141 43.9938 11.9418 44.177 11.9418C44.3049 11.9418 44.4327 11.9311 44.5605 11.9098C44.6884 11.8842 44.7864 11.8651 44.8546 11.8523L45.2828 13.8786C45.1465 13.9212 44.9547 13.9702 44.7076 14.0256C44.4604 14.0852 44.16 14.1214 43.8063 14.1342C43.15 14.1598 42.5748 14.0724 42.0804 13.8722C41.5904 13.6719 41.209 13.3608 40.9363 12.9389C40.6635 12.517 40.5293 11.9844 40.5336 11.3409V1.82955ZM49.8116 8.32386V14H47.0886V0.909091H49.7349V5.91406H49.85C50.0716 5.33452 50.4295 4.88068 50.9238 4.55256C51.4181 4.22017 52.0382 4.05398 52.7839 4.05398C53.4657 4.05398 54.0602 4.20312 54.5673 4.50142C55.0787 4.79545 55.475 5.21946 55.7562 5.77344C56.0417 6.32315 56.1824 6.98153 56.1781 7.74858V14H53.4551V8.23438C53.4593 7.62926 53.3059 7.15838 52.9949 6.82173C52.688 6.48509 52.2576 6.31676 51.7037 6.31676C51.3329 6.31676 51.0048 6.3956 50.7193 6.55327C50.438 6.71094 50.2164 6.94105 50.0545 7.24361C49.8968 7.5419 49.8159 7.90199 49.8116 8.32386ZM62.7955 14.1918C61.7855 14.1918 60.9162 13.9872 60.1875 13.5781C59.4631 13.1648 58.9048 12.581 58.5128 11.8267C58.1207 11.0682 57.9247 10.1712 57.9247 9.13565C57.9247 8.12571 58.1207 7.23935 58.5128 6.47656C58.9048 5.71378 59.4567 5.11932 60.1683 4.69318C60.8842 4.26705 61.7237 4.05398 62.6868 4.05398C63.3345 4.05398 63.9375 4.15838 64.4957 4.36719C65.0582 4.57173 65.5483 4.88068 65.9659 5.29403C66.3878 5.70739 66.7159 6.22727 66.9503 6.85369C67.1847 7.47585 67.3018 8.20455 67.3018 9.03977V9.78764H59.0114V8.10014H64.7386C64.7386 7.7081 64.6534 7.3608 64.483 7.05824C64.3125 6.75568 64.076 6.51918 63.7734 6.34872C63.4751 6.17401 63.1278 6.08665 62.7315 6.08665C62.3182 6.08665 61.9517 6.18253 61.6321 6.37429C61.3168 6.56179 61.0696 6.81534 60.8906 7.13494C60.7116 7.45028 60.62 7.80185 60.6158 8.18963V9.79403C60.6158 10.2798 60.7053 10.6996 60.8842 11.0533C61.0675 11.407 61.3253 11.6797 61.6577 11.8714C61.9901 12.0632 62.3842 12.1591 62.8402 12.1591C63.1428 12.1591 63.4197 12.1165 63.6712 12.0312C63.9226 11.946 64.1378 11.8182 64.3168 11.6477C64.4957 11.4773 64.6321 11.2685 64.7259 11.0213L67.2443 11.1875C67.1165 11.7926 66.8544 12.321 66.4581 12.7727C66.0661 13.2202 65.5589 13.5696 64.9368 13.821C64.3189 14.0682 63.6051 14.1918 62.7955 14.1918ZM69.0788 14V4.18182H71.7188V5.89489H71.821C72 5.28551 72.3004 4.82528 72.7223 4.5142C73.1442 4.19886 73.63 4.04119 74.1797 4.04119C74.3161 4.04119 74.4631 4.04972 74.6207 4.06676C74.7784 4.08381 74.9169 4.10724 75.0362 4.13707V6.55327C74.9084 6.51491 74.7315 6.48082 74.5057 6.45099C74.2798 6.42116 74.0732 6.40625 73.8857 6.40625C73.4851 6.40625 73.1271 6.49361 72.8118 6.66832C72.5007 6.83878 72.2536 7.07741 72.0703 7.38423C71.8913 7.69105 71.8018 8.04474 71.8018 8.44531V14H69.0788Z" fill="#E8EDFF"/>
</svg>
